<svg width="34" height="33" viewBox="0 0 34 33" fill="none" xmlns="http://www.w3.org/2000/svg">
<path fill-rule="evenodd" clip-rule="evenodd" d="M2.31522 17.6315H31.6845C32.5856 17.6315 33.3161 16.901 33.3161 15.9999C33.3161 15.0988 32.5856 14.3683 31.6845 14.3683H2.31522C1.4141 14.3683 0.683594 15.0988 0.683594 15.9999C0.683594 16.901 1.4141 17.6315 2.31522 17.6315Z" fill="white"/>
<path fill-rule="evenodd" clip-rule="evenodd" d="M18.2633 31.0009V1.63166C18.2633 0.730536 17.5327 3.14713e-05 16.6316 3.14713e-05C15.7305 3.14713e-05 15 0.730536 15 1.63166L15 31.0009C15 31.9021 15.7305 32.6326 16.6316 32.6326C17.5327 32.6326 18.2633 31.9021 18.2633 31.0009Z" fill="white"/>
</svg>
